# xmcd CD database file
#
# Track frame offsets:
#	180
#	21494
#	42445
#	62134
#	97610
#	120276
#	141265
#	159068
#	184530
#	203202
#	221197
#	240818
#	266796
#	288414
#
# Disc length: 4138 seconds
#
# Revision: 0
# Processed by: cddbd v1.5.1PL0 Copyright (c) Steve Scherf et al.
# Submitted via: cdripper 1.0.7
#
DISCID=c010280e
DTITLE=Ingocnito - Blues Alive!
DYEAR=1995
DGENRE=Blues
TTITLE0=Checkin' Up On My Baby
TTITLE1=FunkyThing
TTITLE2=You Don't Have To Go
TTITLE3=Driftin' and Driftin'
TTITLE4=Caldonia
TTITLE5=Train Comin'
TTITLE6=Born in Chicago
TTITLE7=Little Red Rooster
TTITLE8=Worried About My Baby
TTITLE9=Homework
TTITLE10=Turn On Your Lovelight
TTITLE11=Blue Angel
TTITLE12=Good Man
TTITLE13=Sweet Home Chicago
EXTD=YEAR: 1995
EXTT0=
EXTT1=
EXTT2=
EXTT3=
EXTT4=
EXTT5=
EXTT6=
EXTT7=
EXTT8=
EXTT9=
EXTT10=
EXTT11=
EXTT12=
EXTT13=
PLAYORDER=
